HIERARCHY
ROOT pelvis
{
  OFFSET 0 100 0
  CHANNELS 6 Xposition Yposition Zposition Zrotation Xrotation Yrotation
  JOINT pelvis_right_femur
  {
    OFFSET -10.78128 -3.44521 -0.5502486
    CHANNELS 3 Zrotation Xrotation Yrotation
    JOINT right_femur_tibia
    {
      OFFSET -0.8047443 -44.0398 -0.1307829
      CHANNELS 3 Zrotation Xrotation Yrotation
      JOINT right_tibia_foot
      {
        OFFSET 3.006224 -47.83518 -5
        CHANNELS 3 Zrotation Xrotation Yrotation
        End Site
        {
          OFFSET 0 -5 15
        }
      }
    }
  }
  JOINT pelvis_left_femur
  {
    OFFSET 10.78128 -3.44521 -0.5502486
    CHANNELS 3 Zrotation Xrotation Yrotation
    JOINT left_femur_tibia
    {
      OFFSET 0.8047443 -44.0398 -0.1307829
      CHANNELS 3 Zrotation Xrotation Yrotation
      JOINT left_tibia_foot
      {
        OFFSET -4.370144 -48.10324 -4.275266
        CHANNELS 3 Zrotation Xrotation Yrotation
        End Site
        {
          OFFSET 0 -5 15
        }
      }
    }
  }
  JOINT pelvis_spine1
  {
    OFFSET 0 6.468898 -3.129235
    CHANNELS 3 Zrotation Xrotation Yrotation
    JOINT spine1
    {
      OFFSET 0 23.15396 4.99043
      CHANNELS 3 Zrotation Xrotation Yrotation
      JOINT spine2
      {
        OFFSET 0 20.79997 -5.064912
        CHANNELS 3 Zrotation Xrotation Yrotation
        JOINT neck
        {
          OFFSET 0 14.38658 9.616178
          CHANNELS 3 Zrotation Xrotation Yrotation
          End Site
          {
            OFFSET 0 20 0
          }
        }
      }
      JOINT right_manubrium
      {
        OFFSET -5.722621 16.35077 3.967754
        CHANNELS 3 Zrotation Xrotation Yrotation
        JOINT right_clavicle
        {
          OFFSET -13.16364 1.694482 -4.693211
          CHANNELS 3 Zrotation Xrotation Yrotation
          JOINT right_humerus
          {
            OFFSET -28.5034 -0.3100689 -2.792744
            CHANNELS 3 Zrotation Xrotation Yrotation
            JOINT right_radius
            {
              OFFSET -25.15693 0.02248979 -1.271978
              CHANNELS 3 Zrotation Xrotation Yrotation
              End Site
              {
                OFFSET -15 0 0
              }
            }
          }
        }
      }
      JOINT left_manubrium
      {
        OFFSET 5.722621 16.35077 3.967754
        CHANNELS 3 Zrotation Xrotation Yrotation
        JOINT left_clavicle
        {
          OFFSET 13.16364 1.694482 -4.693211
          CHANNELS 3 Zrotation Xrotation Yrotation
          JOINT left_humerus
          {
            OFFSET 29.39168 -1.063119 -2.237045
            CHANNELS 3 Zrotation Xrotation Yrotation
            JOINT left_radius
            {
              OFFSET 24.59957 -0.9528479 0.9047498
              CHANNELS 3 Zrotation Xrotation Yrotation
              End Site
              {
                OFFSET 15 -0 -0
              }
            }
          }
        }
      }
    }
  }
}
MOTION
Frames: 19
Frame Time: 0.0416666666667
0 103.5113 0 -0.4020548 -0.08442218 0.2624034 6.346502 -20.10376 10.14755 -0 38.25405 -0 -5.289346 -14.39377 -3.901779 -6.216219 10.93775 -21.4771 -0 5.938317 -0 10.5197 -16.51315 25.91803 -2.203135 -4.269632 5.125261 2.412698 10.30889 -7.769953 2.388317 20.44978 5.113587 1.544832 -24.96686 9.966422 4.454165 -21.62315 11.04208 86.695 31.41704 -18.01795 -0 0 19.52924 -6.412668 10.01256 3.517406 6.228776 -19.42674 -0.7089444 -94.19052 21.22047 24.2749 0 0 -12.41137 13.11582 16.70437 -1.111205
0.4774035 103.6965 2.599354 -0.4286382 0.2220254 0.5191241 6.437143 -21.21337 9.977605 -0 37.06557 -0 -5.408493 -14.18128 -3.733198 -6.259282 11.45519 -21.57972 -0 5.706633 -0 10.41047 -17.05195 25.91873 -2.273878 -4.093398 4.973973 2.530533 10.08815 -7.802127 2.312619 20.53735 5.345022 1.730927 -25.16967 10.03104 4.573032 -21.29171 11.0454 86.66809 31.83063 -18.28628 -0 0 18.92174 -6.295916 9.709527 3.497823 6.381816 -19.52516 -0.6758851 -94.08085 21.60522 23.72445 0 0 -13.02767 13.0506 16.70861 -1.028022
0.8857969 103.8397 5.350399 -0.6009278 1.317471 0.7504644 6.761403 -23.97174 9.243332 -0 32.43743 -0 -5.669025 -12.69391 -3.038863 -6.216692 11.88044 -20.87303 -0 7.611785 -0 9.215823 -17.90611 24.59054 -2.308445 -3.549434 4.68665 2.90527 9.766731 -8.055753 1.886038 20.4741 6.129035 2.395495 -25.85645 9.939835 5.106729 -20.35336 11.29571 86.66843 33.34789 -19.39494 -0 0 16.95459 -6.65661 9.401882 3.933966 6.590575 -20.10821 -0.8109485 -93.34008 22.32294 22.2583 0 0 -15.63632 12.33792 16.04751 -0.1371431
1.256592 103.9391 8.318793 -0.752388 2.031154 0.9582525 6.950673 -25.56133 8.566829 -0 28.94447 -0 -5.878627 -11.22839 -2.499343 -6.120701 11.79079 -19.96537 -0 9.807518 -0 8.12402 -18.16803 23.21335 -2.248671 -3.188608 4.539753 3.13899 9.707695 -8.267137 1.54471 20.33723 6.663703 2.859239 -26.31676 9.778534 5.421067 -19.76621 11.53322 86.82011 34.26576 -20.26364 -0 0 15.53209 -7.263502 9.402844 4.434852 6.654007 -20.64824 -1.02449 -92.64889 22.52446 21.28038 0 0 -17.63752 11.81308 15.3848 0.524793
1.609129 104.0437 11.5729 -0.895156 2.564948 1.14808 7.080279 -26.47893 7.931343 -0 26.02912 -0 -6.019773 -9.729566 -2.043075 -5.98298 11.36039 -18.87799 -0 12.43017 -0 7.022725 -18.03113 21.72508 -2.127097 -2.932751 4.489429 3.296872 9.803613 -8.466507 1.243682 20.13068 7.064899 3.218831 -26.65197 9.561551 5.641891 -19.34941 11.77345 87.04021 34.89505 -21.02699 -0 0 14.39466 -8.036712 9.605886 4.987855 6.624451 -21.16945 -1.278159 -91.95152 22.40905 20.56199 0 0 -19.35902 11.36523 14.64573 1.098841
1.960882 104.196 15.15916 -1.021054 2.969876 1.322963 7.17962 -26.81791 7.422742 -0 23.72032 -0 -6.029452 -8.346213 -1.697684 -5.808002 10.64252 -17.69377 -0 15.43562 -0 5.904016 -17.55149 20.18151 -1.970211 -2.76198 4.53256 3.397361 9.999106 -8.65678 0.982092 19.85774 7.349212 3.488134 -26.86538 9.299122 5.845272 -19.05077 12.01027 87.24107 35.38049 -21.67445 -0 0 13.55486 -8.871763 9.978654 5.550352 6.505151 -21.6188 -1.531961 -91.27877 22.11104 20.08783 0 0 -20.8104 10.8935 13.81664 1.706083
2.325299 104.4338 19.10781 -1.128145 3.271872 1.483209 7.269899 -26.67206 7.06239 -0 21.94672 -0 -5.902972 -7.130086 -1.467268 -5.595055 9.689472 -16.45949 -0 18.80535 -0 4.766828 -16.78339 18.62569 -1.792491 -2.652704 4.654944 3.455002 10.25788 -8.836747 0.7561563 19.53562 7.536246 3.684231 -26.96823 9.000002 6.061872 -18.82981 12.24111 87.39109 35.79375 -22.21392 -0 0 12.97312 -9.718135 10.48122 6.102913 6.306792 -21.98063 -1.771547 -90.64461 21.72105 19.8187 0 0 -22.0225 10.35479 12.90722 2.397515
2.712164 104.7908 23.43318 -1.214883 3.47932 1.626176 7.362335 -26.09733 6.857937 -0 20.64767 -0 -5.646473 -6.120967 -1.353387 -5.3406 8.526643 -15.20844 -0 22.51858 -0 3.611309 -15.7672 17.09599 -1.604083 -2.582283 4.843669 3.479808 10.55495 -9.002612 0.5622655 19.18286 7.640213 3.819796 -26.96656 8.66965 6.309149 -18.6614 12.46574 87.46825 36.17807 -22.6434 -0 0 12.62035 -10.54426 11.08266 6.63585 6.035634 -22.244 -1.991507 -90.06384 21.31229 19.7295 0 0 -23.01077 9.713639 11.93156 3.214192
3.127784 105.2954 28.13423 -1.280162 3.58735 1.746247 7.459494 -25.1222 6.800867 -0 19.75925 -0 -5.278461 -5.346042 -1.351484 -5.038801 7.159107 -13.96229 -0 26.53739 -0 2.443124 -14.53653 15.63086 -1.411263 -2.529474 5.086499 3.477638 10.87392 -9.147412 0.3977154 18.82007 7.670957 3.90367 -26.8635 8.312217 6.589478 -18.53386 12.685 87.45811 36.5474 -22.95025 -0 0 12.47423 -11.33579 11.75565 7.147487 5.697534 -22.40368 -2.192837 -89.55256 20.9376 19.80394 0 0 -23.77795 8.951366 10.90947 4.176311
3.575192 105.9686 33.1942 -1.322934 3.582638 1.834916 7.556603 -23.75326 6.870073 -0 19.20919 -0 -4.826265 -4.829796 -1.450454 -4.681441 5.57334 -12.73505 -0 30.78747 -0 1.274212 -13.12474 14.27195 -1.218065 -2.474235 5.372131 3.450923 11.20321 -9.260873 0.2609012 18.46945 7.63472 3.941214 -26.66009 7.931631 6.892965 -18.44769 12.89985 87.3471 36.89307 -23.10806 -0 0 12.52232 -12.09066 12.47388 7.642634 5.299697 -22.45743 -2.379677 -89.13017 20.63362 20.03413 0 0 -24.31471 8.063156 9.866174 5.286231
4.054255 106.8199 38.57975 -1.342293 3.445872 1.880898 7.642361 -21.98032 7.030203 -0 18.90442 -0 -4.327623 -4.59601 -1.630593 -4.257616 3.74131 -11.53494 -0 35.13587 -0 0.1253152 -11.57205 13.0668 -1.02699 -2.398262 5.689461 3.398826 11.53388 -9.328903 0.1516354 18.15565 7.534705 3.934448 -26.35644 7.532858 7.195487 -18.4157 13.11026 87.12152 37.18251 -23.07552 -0 0 12.76133 -12.81842 13.20857 8.13248 4.853364 -22.40664 -2.558019 -88.82015 20.42054 20.4185 0 0 -24.60152 7.060599 8.835982 6.524418
4.561798 107.8413 44.24037 -1.337785 3.154168 1.870347 7.699941 -19.78157 7.229069 -0 18.71834 -0 -3.832867 -4.666697 -1.861486 -3.753651 1.626067 -10.36522 -0 39.36748 -0 -0.9716876 -9.93262 12.06958 -0.8395256 -2.286256 6.02665 3.31729 11.85789 -9.333396 0.07131234 17.9063 7.3717 3.882172 -25.95329 7.12304 7.455867 -18.46382 13.3141 86.76956 37.35637 -22.79763 -0 0 13.19544 -13.5408 13.92533 8.635109 4.376411 -22.25796 -2.735155 -88.64962 20.3007 20.95944 0 0 -24.61184 5.974179 7.867317 7.845095
5.091918 109.0003 50.10904 -1.30998 2.684688 1.787383 7.709113 -17.13047 7.395935 -0 18.4812 -0 -3.405803 -5.057705 -2.10078 -3.153692 -0.8095518 -9.224236 -0 43.16594 -0 -1.972074 -8.280151 11.33872 -0.656573 -2.128272 6.370316 3.199239 12.16706 -9.252987 0.02281726 17.75147 7.144967 3.780289 -25.4541 6.712417 7.613833 -18.63114 13.50582 86.28728 37.32691 -22.21175 -0 0 13.83346 -14.29254 14.58224 9.175848 3.895393 -22.02569 -2.919433 -88.64672 20.25639 21.66019 0 0 -24.31768 4.854975 7.027101 9.172985
5.636769 110.232 56.10601 -1.261267 2.021422 1.615257 7.650429 -14.00723 7.444182 -0 17.9812 -0 -3.119704 -5.772002 -2.295591 -2.441593 -3.589665 -8.105442 -0 46.11091 -0 -2.818815 -6.70952 10.92944 -0.4790539 -1.923106 6.705357 3.035545 12.4521 -9.065788 0.009836852 17.72047 6.853866 3.622855 -24.86783 6.314653 7.592411 -18.96724 13.6751 85.68863 36.98389 -21.26151 -0 0 14.68473 -15.11966 15.13073 9.786085 3.445932 -21.73381 -3.119559 -88.83477 20.24936 22.52056 0 0 -23.6995 3.773091 6.40016 10.40539
6.188052 111.4356 62.1473 -1.196624 1.166628 1.338498 7.511677 -10.4176 7.282603 -0 16.98698 -0 -3.044405 -6.792287 -2.388615 -1.604965 -6.706729 -6.99842 -0 47.71222 -0 -3.448011 -5.330356 10.87965 -0.30898 -1.682075 7.016102 2.817553 12.70213 -8.75528 0.03513934 17.83461 6.500693 3.40455 -24.21237 5.945995 7.309584 -19.52359 13.80572 85.01657 36.21654 -19.91968 -0 0 15.75338 -16.07193 15.52143 10.49854 3.069726 -21.41597 -3.342483 -89.22255 20.22555 23.53141 0 0 -22.76117 2.809756 6.077224 11.42516
6.739147 112.4789 68.15894 -1.123703 0.1563692 0.9462457 7.294672 -6.419536 6.838682 -0 15.30227 -0 -3.222199 -8.075833 -2.330275 -0.6422939 -10.09962 -5.893056 -0 47.50336 -0 -3.802587 -4.248927 11.18975 -0.1511448 -1.431388 7.289296 2.541716 12.90431 -8.319652 0.09756438 18.09562 6.09494 3.125074 -23.51779 5.622662 6.703504 -20.33616 13.87604 84.34557 34.95805 -18.21456 -0 0 17.03119 -17.18615 15.7166 11.33721 2.806461 -21.11098 -3.58907 -89.7924 20.12925 24.66857 0 0 -21.54873 2.039923 6.125928 12.12977
7.287215 113.2172 74.0941 -1.051223 -0.9255157 0.4363852 7.017539 -2.152223 6.091985 -0 12.85163 -0 -3.63698 -9.554811 -2.095272 0.4266943 -13.63612 -4.788879 -0 45.19903 -0 -3.855396 -3.539556 11.80239 -0.01509075 -1.210117 7.518465 2.215748 13.04434 -7.782306 0.1882884 18.47305 5.658066 2.794918 -22.82717 5.356549 5.769618 -21.4003 13.86351 83.76109 33.24663 -16.24603 -0 0 18.48974 -18.46111 15.70786 12.3026 2.680786 -20.85253 -3.848078 -90.49159 19.92769 25.88915 0 0 -20.16525 1.504686 6.548019 12.4754
7.834004 113.5254 79.94545 -0.985224 -1.946868 -0.1808109 6.706917 2.149306 5.105166 -0 9.766007 -0 -4.19267 -11.14351 -1.696897 1.549939 -17.11378 -3.709063 -0 40.87093 -0 -3.635157 -3.216668 12.59523 0.08398203 -1.061138 7.707447 1.863363 13.10803 -7.197197 0.2884887 18.89926 5.226062 2.439856 -22.19261 5.150905 4.595042 -22.64787 13.75514 83.313 31.2722 -14.17646 -0 0 20.07448 -19.83454 15.53132 13.35849 2.689015 -20.65514 -4.091753 -91.23586 19.63819 27.13363 0 0 -18.76851 1.180889 7.24375 12.52006
8.384368 113.3338 85.74321 -0.924681 -2.752158 -0.8816638 6.381128 6.176985 4.029691 -0 6.405538 -0 -4.72423 -12.75018 -1.188892 2.638616 -20.29182 -2.711822 -0 35.03395 -0 -3.237717 -3.226139 13.40093 0.1273557 -1.01623 7.869566 1.522865 13.08421 -6.640972 0.3716551 19.28172 4.845805 2.099784 -21.66504 4.999025 3.36272 -23.94519 13.561 82.97056 29.36061 -12.19529 -0 0 21.70452 -21.18095 15.26682 14.43057 2.794735 -20.50453 -4.278593 -91.93017 19.33928 28.33489 0 0 -17.54004 0.9681139 8.017206 12.43343
